<svg width="171" height="176" viewBox="0 0 171 176" fill="none" xmlns="http://www.w3.org/2000/svg">
<mask id="path-1-inside-1_5_18" fill="white">
<path fill-rule="evenodd" clip-rule="evenodd" d="M1.52588e-05 99.75V87.6L4.95002 87.15C7.85002 86.85 9.30002 85.45 9.30002 82.95V13.2L0.750015 12.75V0H43.65C54.85 0 63.55 2.65 69.75 7.95C76.05 13.15 79.2 21 79.2 31.5C79.2 42 75.65 50.2 68.55 56.1C61.45 61.9 52.05 64.8 40.35 64.8H27.6V86.55L42 87V99.75H1.52588e-05ZM27.6 50.25H38.4C53 50.25 60.3 44.3 60.3 32.4C60.3 25.2 58.4 20.45 54.6 18.15C50.9 15.75 44.95 14.55 36.75 14.55H27.6V50.25ZM41.4404 163.871V176H2.37305V165.849C13.9453 146.923 20.8154 135.219 22.9834 130.736C25.1807 126.225 26.2793 122.709 26.2793 120.189C26.2793 118.256 25.9424 116.82 25.2686 115.883C24.624 114.916 23.6279 114.433 22.2803 114.433C20.9326 114.433 19.9219 114.96 19.248 116.015C18.6035 117.069 18.2812 119.164 18.2812 122.299V129.066H2.37305V126.474C2.37305 122.489 2.57812 119.354 2.98828 117.069C3.39844 114.755 4.40918 112.484 6.02051 110.258C7.63184 108.031 9.72656 106.347 12.3047 105.204C14.8828 104.062 17.9736 103.49 21.5771 103.49C28.6377 103.49 33.9697 105.248 37.5732 108.764C41.2061 112.25 43.0225 116.674 43.0225 122.035C43.0225 126.107 41.9971 130.414 39.9463 134.955C37.9248 139.496 31.9336 149.135 21.9727 163.871H41.4404ZM102.551 104.853V151.347H107.604V163.476H102.551V176H84.7969V163.476H63.7031V151.347L79.04 104.853H102.551ZM84.7969 151.347V121.068L76.9746 151.347H84.7969ZM160.629 104.853V120.365L149.291 176H131.625L144.237 117.641H126.703V104.853H160.629ZM121.655 12.75V28.9318H129.745V12.75H121.655ZM142.994 34.4943L148.557 40.0568L159.985 28.6284L154.322 22.8636L142.994 34.4943ZM154.018 53.2045V61.2955H170.2V53.2045H154.018ZM121.655 85.5682V101.75H129.745V85.5682H121.655ZM97.0784 22.9648L91.3137 28.6284L102.843 39.8545L108.507 34.3932L97.0784 22.9648ZM142.994 80.0057L154.22 91.6364L159.985 85.6693L148.456 74.5443L142.994 80.0057ZM81.2 53.2045V61.2955H97.3818V53.2045H81.2ZM91.4148 85.8716L97.0784 91.6364L108.608 80.1068L105.675 77.275L102.742 74.5443L91.4148 85.8716ZM108.507 74.4432C113.227 79.1629 118.958 81.5227 125.7 81.5227C132.442 81.5227 138.173 79.1629 142.893 74.4432C147.613 69.7235 149.973 63.9924 149.973 57.25C149.973 50.5076 147.613 44.7765 142.893 40.0568C138.173 35.3371 132.442 32.9773 125.7 32.9773C118.958 32.9773 113.227 35.3371 108.507 40.0568C103.787 44.7765 101.427 50.5076 101.427 57.25C101.427 63.9924 103.787 69.7235 108.507 74.4432Z"/>
</mask>
<path fill-rule="evenodd" clip-rule="evenodd" d="M1.52588e-05 99.75V87.6L4.95002 87.15C7.85002 86.85 9.30002 85.45 9.30002 82.95V13.2L0.750015 12.75V0H43.65C54.85 0 63.55 2.65 69.75 7.95C76.05 13.15 79.2 21 79.2 31.5C79.2 42 75.65 50.2 68.55 56.1C61.45 61.9 52.05 64.8 40.35 64.8H27.6V86.55L42 87V99.75H1.52588e-05ZM27.6 50.25H38.4C53 50.25 60.3 44.3 60.3 32.4C60.3 25.2 58.4 20.45 54.6 18.15C50.9 15.75 44.95 14.55 36.75 14.55H27.6V50.25ZM41.4404 163.871V176H2.37305V165.849C13.9453 146.923 20.8154 135.219 22.9834 130.736C25.1807 126.225 26.2793 122.709 26.2793 120.189C26.2793 118.256 25.9424 116.82 25.2686 115.883C24.624 114.916 23.6279 114.433 22.2803 114.433C20.9326 114.433 19.9219 114.96 19.248 116.015C18.6035 117.069 18.2812 119.164 18.2812 122.299V129.066H2.37305V126.474C2.37305 122.489 2.57812 119.354 2.98828 117.069C3.39844 114.755 4.40918 112.484 6.02051 110.258C7.63184 108.031 9.72656 106.347 12.3047 105.204C14.8828 104.062 17.9736 103.49 21.5771 103.49C28.6377 103.49 33.9697 105.248 37.5732 108.764C41.2061 112.25 43.0225 116.674 43.0225 122.035C43.0225 126.107 41.9971 130.414 39.9463 134.955C37.9248 139.496 31.9336 149.135 21.9727 163.871H41.4404ZM102.551 104.853V151.347H107.604V163.476H102.551V176H84.7969V163.476H63.7031V151.347L79.04 104.853H102.551ZM84.7969 151.347V121.068L76.9746 151.347H84.7969ZM160.629 104.853V120.365L149.291 176H131.625L144.237 117.641H126.703V104.853H160.629ZM121.655 12.75V28.9318H129.745V12.75H121.655ZM142.994 34.4943L148.557 40.0568L159.985 28.6284L154.322 22.8636L142.994 34.4943ZM154.018 53.2045V61.2955H170.2V53.2045H154.018ZM121.655 85.5682V101.75H129.745V85.5682H121.655ZM97.0784 22.9648L91.3137 28.6284L102.843 39.8545L108.507 34.3932L97.0784 22.9648ZM142.994 80.0057L154.22 91.6364L159.985 85.6693L148.456 74.5443L142.994 80.0057ZM81.2 53.2045V61.2955H97.3818V53.2045H81.2ZM91.4148 85.8716L97.0784 91.6364L108.608 80.1068L105.675 77.275L102.742 74.5443L91.4148 85.8716ZM108.507 74.4432C113.227 79.1629 118.958 81.5227 125.7 81.5227C132.442 81.5227 138.173 79.1629 142.893 74.4432C147.613 69.7235 149.973 63.9924 149.973 57.25C149.973 50.5076 147.613 44.7765 142.893 40.0568C138.173 35.3371 132.442 32.9773 125.7 32.9773C118.958 32.9773 113.227 35.3371 108.507 40.0568C103.787 44.7765 101.427 50.5076 101.427 57.25C101.427 63.9924 103.787 69.7235 108.507 74.4432Z" fill="white"/>
<path d="M1.52588e-05 87.6L-0.271595 84.6123L-2.99998 84.8604V87.6H1.52588e-05ZM1.52588e-05 99.75H-2.99998V102.75H1.52588e-05V99.75ZM4.95002 87.15L5.22163 90.1377L5.24018 90.136L5.25871 90.1341L4.95002 87.15ZM9.30002 13.2H12.3V10.3537L9.45769 10.2041L9.30002 13.2ZM0.750015 12.75H-2.24998V15.5963L0.592337 15.7459L0.750015 12.75ZM0.750015 0V-3H-2.24998V0H0.750015ZM69.75 7.95L67.8007 10.2304L67.8204 10.2472L67.8403 10.2637L69.75 7.95ZM68.55 56.1L70.4479 58.4233L70.4577 58.4154L70.4674 58.4073L68.55 56.1ZM27.6 64.8V61.8H24.6V64.8H27.6ZM27.6 86.55H24.6V89.4577L27.5063 89.5485L27.6 86.55ZM42 87H45V84.0923L42.0937 84.0015L42 87ZM42 99.75V102.75H45V99.75H42ZM27.6 50.25H24.6V53.25H27.6V50.25ZM54.6 18.15L52.9674 20.6669L53.0066 20.6923L53.0466 20.7165L54.6 18.15ZM27.6 14.55V11.55H24.6V14.55H27.6ZM41.4404 176V179H44.4404V176H41.4404ZM41.4404 163.871H44.4404V160.871H41.4404V163.871ZM2.37305 176H-0.626953V179H2.37305V176ZM2.37305 165.849L-0.186407 164.284L-0.626953 165.004V165.849H2.37305ZM22.9834 130.736L20.2862 129.423L20.2827 129.43L22.9834 130.736ZM25.2686 115.883L22.7724 117.547L22.8017 117.591L22.8325 117.634L25.2686 115.883ZM19.248 116.015L16.72 114.399L16.7038 114.425L16.6882 114.45L19.248 116.015ZM18.2812 129.066V132.066H21.2812V129.066H18.2812ZM2.37305 129.066H-0.626953V132.066H2.37305V129.066ZM2.98828 117.069L5.9411 117.599L5.94225 117.593L2.98828 117.069ZM37.5732 108.764L35.4783 110.911L35.4871 110.92L35.496 110.928L37.5732 108.764ZM39.9463 134.955L37.2122 133.72L37.2089 133.728L37.2056 133.735L39.9463 134.955ZM21.9727 163.871L19.4872 162.191L16.3238 166.871H21.9727V163.871ZM102.551 151.347H99.5508V154.347H102.551V151.347ZM102.551 104.853H105.551V101.853H102.551V104.853ZM107.604 151.347H110.604V148.347H107.604V151.347ZM107.604 163.476V166.476H110.604V163.476H107.604ZM102.551 163.476V160.476H99.5508V163.476H102.551ZM102.551 176V179H105.551V176H102.551ZM84.7969 176H81.7969V179H84.7969V176ZM84.7969 163.476H87.7969V160.476H84.7969V163.476ZM63.7031 163.476H60.7031V166.476H63.7031V163.476ZM63.7031 151.347L60.8541 150.407L60.7031 150.865V151.347H63.7031ZM79.04 104.853V101.853H76.8706L76.191 103.913L79.04 104.853ZM84.7969 121.068H87.7969L81.8922 120.318L84.7969 121.068ZM84.7969 151.347V154.347H87.7969V151.347H84.7969ZM76.9746 151.347L74.07 150.596L73.1011 154.347H76.9746V151.347ZM160.629 120.365L163.568 120.964L163.629 120.668V120.365H160.629ZM160.629 104.853H163.629V101.853H160.629V104.853ZM149.291 176V179H151.741L152.231 176.599L149.291 176ZM131.625 176L128.693 175.366L127.907 179H131.625V176ZM144.237 117.641L147.17 118.274L147.955 114.641H144.237V117.641ZM126.703 117.641H123.703V120.641H126.703V117.641ZM126.703 104.853V101.853H123.703V104.853H126.703ZM121.655 28.9318H118.655V31.9318H121.655V28.9318ZM121.655 12.75V9.75H118.655V12.75H121.655ZM129.745 28.9318V31.9318H132.745V28.9318H129.745ZM129.745 12.75H132.745V9.75H129.745V12.75ZM148.557 40.0568L146.436 42.1781L148.557 44.2995L150.678 42.1781L148.557 40.0568ZM142.994 34.4943L140.845 32.4012L138.78 34.5222L140.873 36.6156L142.994 34.4943ZM159.985 28.6284L162.107 30.7497L164.209 28.6471L162.125 26.5259L159.985 28.6284ZM154.322 22.8636L156.462 20.7612L154.312 18.5734L152.172 20.7705L154.322 22.8636ZM154.018 61.2955H151.018V64.2955H154.018V61.2955ZM154.018 53.2045V50.2045H151.018V53.2045H154.018ZM170.2 61.2955V64.2955H173.2V61.2955H170.2ZM170.2 53.2045H173.2V50.2045H170.2V53.2045ZM121.655 101.75H118.655V104.75H121.655V101.75ZM121.655 85.5682V82.5682H118.655V85.5682H121.655ZM129.745 101.75V104.75H132.745V101.75H129.745ZM129.745 85.5682H132.745V82.5682H129.745V85.5682ZM91.3137 28.6284L89.2112 26.4884L87.0232 28.638L89.2208 30.7778L91.3137 28.6284ZM97.0784 22.9648L99.1997 20.8435L97.0971 18.7408L94.976 20.8248L97.0784 22.9648ZM102.843 39.8545L100.75 42.004L102.833 44.0319L104.926 42.0141L102.843 39.8545ZM108.507 34.3932L110.589 36.5527L112.788 34.4321L110.628 32.2719L108.507 34.3932ZM154.22 91.6364L152.062 93.7198L154.219 95.9551L156.378 93.7208L154.22 91.6364ZM142.994 80.0057L140.873 77.8844L138.789 79.9685L140.836 82.0891L142.994 80.0057ZM159.985 85.6693L162.143 87.7538L164.229 85.5949L162.068 83.5105L159.985 85.6693ZM148.456 74.5443L150.539 72.3855L148.418 70.3392L146.334 72.423L148.456 74.5443ZM81.2 61.2955H78.2V64.2955H81.2V61.2955ZM81.2 53.2045V50.2045H78.2V53.2045H81.2ZM97.3818 61.2955V64.2955H100.382V61.2955H97.3818ZM97.3818 53.2045H100.382V50.2045H97.3818V53.2045ZM97.0784 91.6364L94.9384 93.7388L97.0596 95.8979L99.1997 93.7577L97.0784 91.6364ZM91.4148 85.8716L89.2935 83.7503L87.1908 85.8529L89.2748 87.9741L91.4148 85.8716ZM108.608 80.1068L110.729 82.2281L112.888 80.0693L110.692 77.9486L108.608 80.1068ZM105.675 77.275L107.759 75.1168L107.739 75.0979L107.719 75.0793L105.675 77.275ZM102.742 74.5443L104.786 72.3486L102.668 70.3761L100.621 72.423L102.742 74.5443ZM-2.99998 87.6V99.75H3.00002V87.6H-2.99998ZM4.67841 84.1623L-0.271595 84.6123L0.271625 90.5877L5.22163 90.1377L4.67841 84.1623ZM6.30002 82.95C6.30002 83.5944 6.1336 83.7121 6.12873 83.7168C6.06038 83.7828 5.71269 84.0551 4.64132 84.1659L5.25871 90.1341C7.08735 89.9449 8.91465 89.3672 10.2963 88.0332C11.7414 86.6379 12.3 84.8056 12.3 82.95H6.30002ZM6.30002 13.2V82.95H12.3V13.2H6.30002ZM0.592337 15.7459L9.14234 16.1959L9.45769 10.2041L0.907693 9.75414L0.592337 15.7459ZM-2.24998 0V12.75H3.75002V0H-2.24998ZM43.65 -3H0.750015V3H43.65V-3ZM71.6994 5.66963C64.783 -0.242738 55.2983 -3 43.65 -3V3C54.4017 3 62.317 5.54274 67.8007 10.2304L71.6994 5.66963ZM82.2 31.5C82.2 20.3807 78.838 11.5613 71.6597 5.63633L67.8403 10.2637C73.262 14.7387 76.2 21.6193 76.2 31.5H82.2ZM70.4674 58.4073C78.3524 51.855 82.2 42.7543 82.2 31.5H76.2C76.2 41.2457 72.9476 48.5451 66.6327 53.7927L70.4674 58.4073ZM40.35 67.8C52.5471 67.8 62.6787 64.77 70.4479 58.4233L66.6521 53.7767C60.2213 59.03 51.553 61.8 40.35 61.8V67.8ZM27.6 67.8H40.35V61.8H27.6V67.8ZM30.6 86.55V64.8H24.6V86.55H30.6ZM42.0937 84.0015L27.6937 83.5515L27.5063 89.5485L41.9063 89.9985L42.0937 84.0015ZM45 99.75V87H39V99.75H45ZM1.52588e-05 102.75H42V96.75H1.52588e-05V102.75ZM38.4 47.25H27.6V53.25H38.4V47.25ZM57.3 32.4C57.3 37.707 55.7021 41.2023 52.9296 43.4621C50.0398 45.8175 45.3695 47.25 38.4 47.25V53.25C46.0305 53.25 52.3102 51.7075 56.7204 48.1129C61.2479 44.4227 63.3 38.993 63.3 32.4H57.3ZM53.0466 20.7165C55.49 22.1954 57.3 25.5702 57.3 32.4H63.3C63.3 24.8298 61.31 18.7046 56.1534 15.5835L53.0466 20.7165ZM36.75 17.55C44.7955 17.55 50.0171 18.7531 52.9674 20.6669L56.2326 15.6331C51.783 12.7469 45.1045 11.55 36.75 11.55V17.55ZM27.6 17.55H36.75V11.55H27.6V17.55ZM30.6 50.25V14.55H24.6V50.25H30.6ZM44.4404 176V163.871H38.4404V176H44.4404ZM2.37305 179H41.4404V173H2.37305V179ZM-0.626953 165.849V176H5.37305V165.849H-0.626953ZM20.2827 129.43C18.1947 133.747 11.4202 145.302 -0.186407 164.284L4.9325 167.414C16.4704 148.544 23.4362 136.69 25.6841 132.043L20.2827 129.43ZM23.2793 120.189C23.2793 121.993 22.4439 124.992 20.2863 129.423L25.6805 132.05C27.9175 127.457 29.2793 123.425 29.2793 120.189H23.2793ZM22.8325 117.634C22.966 117.819 23.2793 118.501 23.2793 120.189H29.2793C29.2793 118.011 28.9187 115.821 27.7046 114.132L22.8325 117.634ZM22.2803 117.433C22.5973 117.433 22.7175 117.489 22.7283 117.494C22.7329 117.496 22.7342 117.497 22.7334 117.497C22.7325 117.496 22.732 117.496 22.7324 117.496C22.7328 117.496 22.7362 117.499 22.7423 117.507C22.7486 117.514 22.7589 117.527 22.7724 117.547L27.7647 114.219C26.4679 112.273 24.4448 111.433 22.2803 111.433V117.433ZM21.7761 117.63C21.8218 117.558 21.8553 117.523 21.8703 117.509C21.8842 117.496 21.8923 117.491 21.8992 117.488C21.9045 117.485 22.0019 117.433 22.2803 117.433V111.433C20.0029 111.433 17.9938 112.406 16.72 114.399L21.7761 117.63ZM21.2812 122.299C21.2812 120.819 21.3583 119.676 21.4881 118.833C21.5525 118.414 21.6248 118.103 21.693 117.881C21.7629 117.653 21.8127 117.571 21.8079 117.579L16.6882 114.45C16.0614 115.476 15.7424 116.721 15.5578 117.921C15.3653 119.172 15.2812 120.644 15.2812 122.299H21.2812ZM21.2812 129.066V122.299H15.2812V129.066H21.2812ZM2.37305 132.066H18.2812V126.066H2.37305V132.066ZM-0.626953 126.474V129.066H5.37305V126.474H-0.626953ZM0.0354676 116.539C-0.420539 119.08 -0.626953 122.418 -0.626953 126.474H5.37305C5.37305 122.56 5.57679 119.629 5.94109 117.599L0.0354676 116.539ZM3.59016 108.499C1.75802 111.031 0.535826 113.716 0.0343078 116.546L5.94225 117.593C6.26105 115.794 7.06034 113.938 8.45086 112.017L3.59016 108.499ZM11.0892 102.461C8.03947 103.813 5.52072 105.831 3.59016 108.499L8.45086 112.017C9.74295 110.231 11.4137 108.88 13.5202 107.947L11.0892 102.461ZM21.5771 100.49C17.6669 100.49 14.1407 101.109 11.0892 102.461L13.5202 107.947C15.625 107.014 18.2804 106.49 21.5771 106.49V100.49ZM39.6682 106.616C35.3117 102.366 29.1022 100.49 21.5771 100.49V106.49C28.1732 106.49 32.6278 108.13 35.4783 110.911L39.6682 106.616ZM46.0225 122.035C46.0225 115.916 43.9141 110.691 39.6505 106.599L35.496 110.928C38.498 113.809 40.0225 117.432 40.0225 122.035H46.0225ZM42.6804 136.19C44.8681 131.346 46.0225 126.617 46.0225 122.035H40.0225C40.0225 125.598 39.126 129.483 37.2122 133.72L42.6804 136.19ZM24.4581 165.551C34.3748 150.88 40.536 141.007 42.687 136.175L37.2056 133.735C35.3136 137.985 29.4924 147.389 19.4872 162.191L24.4581 165.551ZM41.4404 160.871H21.9727V166.871H41.4404V160.871ZM105.551 151.347V104.853H99.5508V151.347H105.551ZM107.604 148.347H102.551V154.347H107.604V148.347ZM110.604 163.476V151.347H104.604V163.476H110.604ZM102.551 166.476H107.604V160.476H102.551V166.476ZM105.551 176V163.476H99.5508V176H105.551ZM84.7969 179H102.551V173H84.7969V179ZM81.7969 163.476V176H87.7969V163.476H81.7969ZM63.7031 166.476H84.7969V160.476H63.7031V166.476ZM60.7031 151.347V163.476H66.7031V151.347H60.7031ZM76.191 103.913L60.8541 150.407L66.5521 152.286L81.889 105.792L76.191 103.913ZM102.551 101.853H79.04V107.853H102.551V101.853ZM81.7969 121.068V151.347H87.7969V121.068H81.7969ZM79.8792 152.097L87.7015 121.819L81.8922 120.318L74.07 150.596L79.8792 152.097ZM84.7969 148.347H76.9746V154.347H84.7969V148.347ZM163.629 120.365V104.853H157.629V120.365H163.629ZM152.231 176.599L163.568 120.964L157.689 119.766L146.351 175.401L152.231 176.599ZM131.625 179H149.291V173H131.625V179ZM141.305 117.007L128.693 175.366L134.557 176.634L147.17 118.274L141.305 117.007ZM126.703 120.641H144.237V114.641H126.703V120.641ZM123.703 104.853V117.641H129.703V104.853H123.703ZM160.629 101.853H126.703V107.853H160.629V101.853ZM124.655 28.9318V12.75H118.655V28.9318H124.655ZM129.745 25.9318H121.655V31.9318H129.745V25.9318ZM126.745 12.75V28.9318H132.745V12.75H126.745ZM121.655 15.75H129.745V9.75H121.655V15.75ZM150.678 37.9355L145.116 32.373L140.873 36.6156L146.436 42.1781L150.678 37.9355ZM157.864 26.5071L146.436 37.9355L150.678 42.1781L162.107 30.7497L157.864 26.5071ZM152.182 24.9661L157.845 30.7309L162.125 26.5259L156.462 20.7612L152.182 24.9661ZM145.143 36.5874L156.471 24.9567L152.172 20.7705L140.845 32.4012L145.143 36.5874ZM157.018 61.2955V53.2045H151.018V61.2955H157.018ZM170.2 58.2955H154.018V64.2955H170.2V58.2955ZM167.2 53.2045V61.2955H173.2V53.2045H167.2ZM154.018 56.2045H170.2V50.2045H154.018V56.2045ZM124.655 101.75V85.5682H118.655V101.75H124.655ZM129.745 98.75H121.655V104.75H129.745V98.75ZM126.745 85.5682V101.75H132.745V85.5682H126.745ZM121.655 88.5682H129.745V82.5682H121.655V88.5682ZM93.4161 30.7684L99.1809 25.1048L94.976 20.8248L89.2112 26.4884L93.4161 30.7684ZM104.936 37.7051L93.4065 26.479L89.2208 30.7778L100.75 42.004L104.936 37.7051ZM106.424 32.2337L100.761 37.695L104.926 42.0141L110.589 36.5527L106.424 32.2337ZM94.9571 25.0861L106.386 36.5145L110.628 32.2719L99.1997 20.8435L94.9571 25.0861ZM156.379 89.5529L145.153 77.9222L140.836 82.0891L152.062 93.7198L156.379 89.5529ZM157.828 83.5849L152.063 89.5519L156.378 93.7208L162.143 87.7538L157.828 83.5849ZM146.373 76.7032L157.902 87.8282L162.068 83.5105L150.539 72.3855L146.373 76.7032ZM145.116 82.127L150.577 76.6656L146.334 72.423L140.873 77.8844L145.116 82.127ZM84.2 61.2955V53.2045H78.2V61.2955H84.2ZM97.3818 58.2955H81.2V64.2955H97.3818V58.2955ZM94.3818 53.2045V61.2955H100.382V53.2045H94.3818ZM81.2 56.2045H97.3818V50.2045H81.2V56.2045ZM99.2184 89.5339L93.5548 83.7691L89.2748 87.9741L94.9384 93.7388L99.2184 89.5339ZM106.487 77.9855L94.9571 89.515L99.1997 93.7577L110.729 82.2281L106.487 77.9855ZM103.591 79.4332L106.524 82.265L110.692 77.9486L107.759 75.1168L103.591 79.4332ZM100.698 76.74L103.631 79.4707L107.719 75.0793L104.786 72.3486L100.698 76.74ZM93.5361 87.9929L104.863 76.6656L100.621 72.423L89.2935 83.7503L93.5361 87.9929ZM125.7 78.5227C119.744 78.5227 114.779 76.4726 110.628 72.3219L106.386 76.5645C111.674 81.8532 118.171 84.5227 125.7 84.5227V78.5227ZM140.772 72.3219C136.621 76.4726 131.656 78.5227 125.7 78.5227V84.5227C133.229 84.5227 139.726 81.8532 145.015 76.5645L140.772 72.3219ZM146.973 57.25C146.973 63.2059 144.923 68.1712 140.772 72.3219L145.015 76.5645C150.303 71.2758 152.973 64.779 152.973 57.25H146.973ZM140.772 42.1781C144.923 46.3288 146.973 51.2941 146.973 57.25H152.973C152.973 49.721 150.303 43.2242 145.015 37.9355L140.772 42.1781ZM125.7 35.9773C131.656 35.9773 136.621 38.0274 140.772 42.1781L145.015 37.9355C139.726 32.6468 133.229 29.9773 125.7 29.9773V35.9773ZM110.628 42.1781C114.779 38.0274 119.744 35.9773 125.7 35.9773V29.9773C118.171 29.9773 111.674 32.6468 106.386 37.9355L110.628 42.1781ZM104.427 57.25C104.427 51.2941 106.477 46.3288 110.628 42.1781L106.386 37.9355C101.097 43.2242 98.4273 49.721 98.4273 57.25H104.427ZM110.628 72.3219C106.477 68.1712 104.427 63.2059 104.427 57.25H98.4273C98.4273 64.779 101.097 71.2758 106.386 76.5645L110.628 72.3219Z" fill="black" mask="url(#path-1-inside-1_5_18)"/>
</svg>
