<svg width="171" height="174" viewBox="0 0 171 174" fill="none" xmlns="http://www.w3.org/2000/svg">
<mask id="path-1-inside-1_5_18" fill="white">
<path fill-rule="evenodd" clip-rule="evenodd" d="M0 99.75V87.6L4.95 87.15C7.85 86.85 9.3 85.45 9.3 82.95V13.2L0.75 12.75V0H43.65C54.85 0 63.55 2.65 69.75 7.95C76.05 13.15 79.2 21 79.2 31.5C79.2 42 75.65 50.2 68.55 56.1C61.45 61.9 52.05 64.8 40.35 64.8H27.6V86.55L42 87V99.75H0ZM27.6 50.25H38.4C53 50.25 60.3 44.3 60.3 32.4C60.3 25.2 58.4 20.45 54.6 18.15C50.9 15.75 44.95 14.55 36.75 14.55H27.6V50.25ZM2.864 173.75V166.358L21.968 142.262C23.952 139.702 25.264 138.006 25.904 137.174C26.544 136.278 27.152 135.062 27.728 133.526C28.368 131.926 28.688 130.038 28.688 127.862C28.688 125.622 27.92 123.798 26.384 122.39C24.912 120.982 22.992 120.278 20.624 120.278C18.32 120.278 16.56 120.47 15.344 120.854C14.192 121.238 13.488 121.686 13.232 122.198C13.04 122.646 12.944 123.382 12.944 124.406V131.222L3.152 130.55V115.19C9.168 112.182 15.344 110.678 21.68 110.678C28.016 110.678 32.784 112.246 35.984 115.382C39.184 118.454 40.784 122.678 40.784 128.054C40.784 133.43 38.064 139.414 32.624 146.006L17.168 164.246H41.168V173.75H2.864ZM90.287 129.398H97.007V147.35H105.551V156.47H96.911V165.11L104.879 165.59V173.75H76.655V165.878L82.607 165.398C84.463 165.27 85.391 164.374 85.391 162.71V156.374H60.815V148.406L78.863 110.486L87.983 114.998L72.527 147.35H86.255V142.166L90.287 129.398ZM121.208 111.926H162.68V119.894L140.696 173.75H128.696L151.256 121.43H133.112C131.704 121.43 131 122.422 131 124.406V128.246L121.208 127.574V111.926ZM121.655 12.75V28.9318H129.745V12.75H121.655ZM142.994 34.4943L148.557 40.0568L159.985 28.6284L154.322 22.8636L142.994 34.4943ZM170.2 53.2045H154.018V61.2955H170.2V53.2045ZM121.655 85.5682V101.75H129.745V85.5682H121.655ZM91.3136 28.6284L102.843 39.8545L108.507 34.3932L97.0784 22.9648L91.3136 28.6284ZM142.994 80.0057L154.22 91.6364L159.985 85.6693L148.456 74.5443L142.994 80.0057ZM81.2 53.2045V61.2955H97.3818V53.2045H81.2ZM91.4148 85.8716L97.0784 91.6364L108.608 80.1068L105.675 77.275L102.742 74.5443L91.4148 85.8716ZM108.507 74.4432C113.227 79.1629 118.958 81.5227 125.7 81.5227C132.442 81.5227 138.173 79.1629 142.893 74.4432C147.613 69.7235 149.973 63.9924 149.973 57.25C149.973 50.5076 147.613 44.7765 142.893 40.0568C138.173 35.3371 132.442 32.9773 125.7 32.9773C118.958 32.9773 113.227 35.3371 108.507 40.0568C103.787 44.7765 101.427 50.5076 101.427 57.25C101.427 63.9924 103.787 69.7235 108.507 74.4432Z"/>
</mask>
<path fill-rule="evenodd" clip-rule="evenodd" d="M0 99.75V87.6L4.95 87.15C7.85 86.85 9.3 85.45 9.3 82.95V13.2L0.75 12.75V0H43.65C54.85 0 63.55 2.65 69.75 7.95C76.05 13.15 79.2 21 79.2 31.5C79.2 42 75.65 50.2 68.55 56.1C61.45 61.9 52.05 64.8 40.35 64.8H27.6V86.55L42 87V99.75H0ZM27.6 50.25H38.4C53 50.25 60.3 44.3 60.3 32.4C60.3 25.2 58.4 20.45 54.6 18.15C50.9 15.75 44.95 14.55 36.75 14.55H27.6V50.25ZM2.864 173.75V166.358L21.968 142.262C23.952 139.702 25.264 138.006 25.904 137.174C26.544 136.278 27.152 135.062 27.728 133.526C28.368 131.926 28.688 130.038 28.688 127.862C28.688 125.622 27.92 123.798 26.384 122.39C24.912 120.982 22.992 120.278 20.624 120.278C18.32 120.278 16.56 120.47 15.344 120.854C14.192 121.238 13.488 121.686 13.232 122.198C13.04 122.646 12.944 123.382 12.944 124.406V131.222L3.152 130.55V115.19C9.168 112.182 15.344 110.678 21.68 110.678C28.016 110.678 32.784 112.246 35.984 115.382C39.184 118.454 40.784 122.678 40.784 128.054C40.784 133.43 38.064 139.414 32.624 146.006L17.168 164.246H41.168V173.75H2.864ZM90.287 129.398H97.007V147.35H105.551V156.47H96.911V165.11L104.879 165.59V173.75H76.655V165.878L82.607 165.398C84.463 165.27 85.391 164.374 85.391 162.71V156.374H60.815V148.406L78.863 110.486L87.983 114.998L72.527 147.35H86.255V142.166L90.287 129.398ZM121.208 111.926H162.68V119.894L140.696 173.75H128.696L151.256 121.43H133.112C131.704 121.43 131 122.422 131 124.406V128.246L121.208 127.574V111.926ZM121.655 12.75V28.9318H129.745V12.75H121.655ZM142.994 34.4943L148.557 40.0568L159.985 28.6284L154.322 22.8636L142.994 34.4943ZM170.2 53.2045H154.018V61.2955H170.2V53.2045ZM121.655 85.5682V101.75H129.745V85.5682H121.655ZM91.3136 28.6284L102.843 39.8545L108.507 34.3932L97.0784 22.9648L91.3136 28.6284ZM142.994 80.0057L154.22 91.6364L159.985 85.6693L148.456 74.5443L142.994 80.0057ZM81.2 53.2045V61.2955H97.3818V53.2045H81.2ZM91.4148 85.8716L97.0784 91.6364L108.608 80.1068L105.675 77.275L102.742 74.5443L91.4148 85.8716ZM108.507 74.4432C113.227 79.1629 118.958 81.5227 125.7 81.5227C132.442 81.5227 138.173 79.1629 142.893 74.4432C147.613 69.7235 149.973 63.9924 149.973 57.25C149.973 50.5076 147.613 44.7765 142.893 40.0568C138.173 35.3371 132.442 32.9773 125.7 32.9773C118.958 32.9773 113.227 35.3371 108.507 40.0568C103.787 44.7765 101.427 50.5076 101.427 57.25C101.427 63.9924 103.787 69.7235 108.507 74.4432Z" fill="#222222"/>
<path d="M0 87.6L-0.18107 85.6082L-2 85.7736V87.6H0ZM0 99.75H-2V101.75H0V99.75ZM4.95 87.15L5.13107 89.1418L5.14344 89.1407L5.1558 89.1394L4.95 87.15ZM9.3 13.2H11.3V11.3025L9.40512 11.2028L9.3 13.2ZM0.75 12.75H-1.25V14.6475L0.644881 14.7472L0.75 12.75ZM0.75 0V-2H-1.25V0H0.75ZM69.75 7.95L68.4504 9.47024L68.4636 9.48145L68.4769 9.49244L69.75 7.95ZM68.55 56.1L69.8153 57.6489L69.8218 57.6436L69.8282 57.6382L68.55 56.1ZM27.6 64.8V62.8H25.6V64.8H27.6ZM27.6 86.55H25.6V88.4885L27.5375 88.549L27.6 86.55ZM42 87H44V85.0615L42.0625 85.001L42 87ZM42 99.75V101.75H44V99.75H42ZM27.6 50.25H25.6V52.25H27.6V50.25ZM54.6 18.15L53.5116 19.8279L53.5378 19.8449L53.5644 19.861L54.6 18.15ZM27.6 14.55V12.55H25.6V14.55H27.6ZM2.864 166.358L1.2968 165.115L0.864 165.661V166.358H2.864ZM2.864 173.75H0.864V175.75H2.864V173.75ZM21.968 142.262L23.5352 143.505L23.5421 143.496L23.5488 143.487L21.968 142.262ZM25.904 137.174L27.4892 138.393L27.5109 138.365L27.5315 138.336L25.904 137.174ZM27.728 133.526L25.871 132.783L25.863 132.803L25.8553 132.824L27.728 133.526ZM26.384 122.39L25.0016 123.835L25.0169 123.85L25.0326 123.864L26.384 122.39ZM15.344 120.854L14.7417 118.947L14.7266 118.952L14.7116 118.957L15.344 120.854ZM13.232 122.198L11.4431 121.304L11.4169 121.356L11.3937 121.41L13.232 122.198ZM12.944 131.222L12.8071 133.217L14.944 133.364V131.222H12.944ZM3.152 130.55H1.152V132.417L3.01507 132.545L3.152 130.55ZM3.152 115.19L2.25757 113.401L1.152 113.954V115.19H3.152ZM35.984 115.382L34.5841 116.81L34.5915 116.818L34.5989 116.825L35.984 115.382ZM32.624 146.006L34.1499 147.299L34.1583 147.289L34.1666 147.279L32.624 146.006ZM17.168 164.246L15.6421 162.953L12.8518 166.246H17.168V164.246ZM41.168 164.246H43.168V162.246H41.168V164.246ZM41.168 173.75V175.75H43.168V173.75H41.168ZM97.007 129.398H99.007V127.398H97.007V129.398ZM90.287 129.398V127.398H88.8212L88.3798 128.796L90.287 129.398ZM97.007 147.35H95.007V149.35H97.007V147.35ZM105.551 147.35H107.551V145.35H105.551V147.35ZM105.551 156.47V158.47H107.551V156.47H105.551ZM96.911 156.47V154.47H94.911V156.47H96.911ZM96.911 165.11H94.911V166.993L96.7907 167.106L96.911 165.11ZM104.879 165.59H106.879V163.707L104.999 163.594L104.879 165.59ZM104.879 173.75V175.75H106.879V173.75H104.879ZM76.655 173.75H74.655V175.75H76.655V173.75ZM76.655 165.878L76.4942 163.884L74.655 164.033V165.878H76.655ZM82.607 165.398L82.4694 163.403L82.4578 163.404L82.4462 163.404L82.607 165.398ZM85.391 156.374H87.391V154.374H85.391V156.374ZM60.815 156.374H58.815V158.374H60.815V156.374ZM60.815 148.406L59.0091 147.546L58.815 147.954V148.406H60.815ZM78.863 110.486L79.7499 108.693L77.9298 107.793L77.0571 109.626L78.863 110.486ZM87.983 114.998L89.7876 115.86L90.638 114.08L88.8699 113.205L87.983 114.998ZM72.527 147.35L70.7224 146.488L69.355 149.35H72.527V147.35ZM86.255 147.35V149.35H88.255V147.35H86.255ZM86.255 142.166L84.3478 141.564L84.255 141.858V142.166H86.255ZM162.68 111.926H164.68V109.926H162.68V111.926ZM121.208 111.926V109.926H119.208V111.926H121.208ZM162.68 119.894L164.532 120.65L164.68 120.286V119.894H162.68ZM140.696 173.75V175.75H142.04L142.548 174.506L140.696 173.75ZM128.696 173.75L126.859 172.958L125.656 175.75H128.696V173.75ZM151.256 121.43L153.093 122.222L154.296 119.43H151.256V121.43ZM131 128.246L130.863 130.241L133 130.388V128.246H131ZM121.208 127.574H119.208V129.441L121.071 129.569L121.208 127.574ZM121.655 28.9318H119.655V30.9318H121.655V28.9318ZM121.655 12.75V10.75H119.655V12.75H121.655ZM129.745 28.9318V30.9318H131.745V28.9318H129.745ZM129.745 12.75H131.745V10.75H129.745V12.75ZM148.557 40.0568L147.143 41.471L148.557 42.8852L149.971 41.471L148.557 40.0568ZM142.994 34.4943L141.562 33.0989L140.184 34.5129L141.58 35.9085L142.994 34.4943ZM159.985 28.6284L161.399 30.0426L162.801 28.6409L161.412 27.2268L159.985 28.6284ZM154.322 22.8636L155.748 21.462L154.315 20.0035L152.889 21.4682L154.322 22.8636ZM154.018 53.2045V51.2045H152.018V53.2045H154.018ZM170.2 53.2045H172.2V51.2045H170.2V53.2045ZM154.018 61.2955H152.018V63.2955H154.018V61.2955ZM170.2 61.2955V63.2955H172.2V61.2955H170.2ZM121.655 101.75H119.655V103.75H121.655V101.75ZM121.655 85.5682V83.5682H119.655V85.5682H121.655ZM129.745 101.75V103.75H131.745V101.75H129.745ZM129.745 85.5682H131.745V83.5682H129.745V85.5682ZM102.843 39.8545L101.448 41.2875L102.836 42.6394L104.231 41.2942L102.843 39.8545ZM91.3136 28.6284L89.912 27.2017L88.4533 28.6348L89.9184 30.0614L91.3136 28.6284ZM108.507 34.3932L109.895 35.8329L111.361 34.4191L109.921 32.979L108.507 34.3932ZM97.0784 22.9648L98.4926 21.5506L97.0909 20.1488L95.6768 21.5381L97.0784 22.9648ZM154.22 91.6364L152.781 93.0253L154.22 94.5155L155.659 93.026L154.22 91.6364ZM142.994 80.0057L141.58 78.5915L140.191 79.9809L141.555 81.3947L142.994 80.0057ZM159.985 85.6693L161.424 87.0589L162.814 85.6197L161.374 84.2301L159.985 85.6693ZM148.456 74.5443L149.844 73.1051L148.431 71.7409L147.041 73.1301L148.456 74.5443ZM81.2 61.2955H79.2V63.2955H81.2V61.2955ZM81.2 53.2045V51.2045H79.2V53.2045H81.2ZM97.3818 61.2955V63.2955H99.3818V61.2955H97.3818ZM97.3818 53.2045H99.3818V51.2045H97.3818V53.2045ZM97.0784 91.6364L95.6517 93.038L97.0658 94.4774L98.4926 93.0506L97.0784 91.6364ZM91.4148 85.8716L90.0006 84.4574L88.5988 85.8591L89.9881 87.2732L91.4148 85.8716ZM108.608 80.1068L110.022 81.521L111.461 80.0818L109.997 78.668L108.608 80.1068ZM105.675 77.275L107.064 75.8362L107.051 75.8236L107.038 75.8112L105.675 77.275ZM102.742 74.5443L104.105 73.0805L102.692 71.7655L101.328 73.1301L102.742 74.5443ZM142.893 40.0568L144.307 38.6426L144.307 38.6426L142.893 40.0568ZM108.507 40.0568L107.093 38.6426L107.093 38.6426L108.507 40.0568ZM-2 87.6V99.75H2V87.6H-2ZM4.76893 85.1582L-0.18107 85.6082L0.18107 89.5918L5.13107 89.1418L4.76893 85.1582ZM7.3 82.95C7.3 83.7963 7.06823 84.1997 6.82331 84.4362C6.53607 84.7135 5.94178 85.0367 4.7442 85.1606L5.1558 89.1394C6.85822 88.9633 8.43893 88.4365 9.60169 87.3138C10.8068 86.1503 11.3 84.6037 11.3 82.95H7.3ZM7.3 13.2V82.95H11.3V13.2H7.3ZM0.644881 14.7472L9.19488 15.1972L9.40512 11.2028L0.855118 10.7528L0.644881 14.7472ZM-1.25 0V12.75H2.75V0H-1.25ZM43.65 -2H0.75V2H43.65V-2ZM71.0496 6.42975C64.372 0.721507 55.1489 -2 43.65 -2V2C54.5512 2 62.728 4.57849 68.4504 9.47024L71.0496 6.42975ZM81.2 31.5C81.2 20.5871 77.9087 12.0908 71.0231 6.40755L68.4769 9.49244C74.1913 14.2092 77.2 21.4129 77.2 31.5H81.2ZM69.8282 57.6382C77.4516 51.3033 81.2 42.5029 81.2 31.5H77.2C77.2 41.4971 73.8484 49.0967 67.2718 54.5618L69.8282 57.6382ZM40.35 66.8C52.3814 66.8 62.2691 63.8134 69.8153 57.6489L67.2847 54.5511C60.6309 59.9866 51.7186 62.8 40.35 62.8V66.8ZM27.6 66.8H40.35V62.8H27.6V66.8ZM29.6 86.55V64.8H25.6V86.55H29.6ZM42.0625 85.001L27.6625 84.551L27.5375 88.549L41.9375 88.999L42.0625 85.001ZM44 99.75V87H40V99.75H44ZM0 101.75H42V97.75H0V101.75ZM38.4 48.25H27.6V52.25H38.4V48.25ZM58.3 32.4C58.3 37.9214 56.6264 41.7391 53.5614 44.2372C50.4182 46.7992 45.4797 48.25 38.4 48.25V52.25C45.9203 52.25 51.9318 50.7258 56.0886 47.3378C60.3236 43.8859 62.3 38.7786 62.3 32.4H58.3ZM53.5644 19.861C56.46 21.6136 58.3 25.4468 58.3 32.4H62.3C62.3 24.9532 60.34 19.2864 55.6356 16.439L53.5644 19.861ZM36.75 16.55C44.847 16.55 50.3114 17.7521 53.5116 19.8279L55.6884 16.4721C51.4886 13.7479 45.053 12.55 36.75 12.55V16.55ZM27.6 16.55H36.75V12.55H27.6V16.55ZM29.6 50.25V14.55H25.6V50.25H29.6ZM0.864 166.358V173.75H4.864V166.358H0.864ZM20.4008 141.019L1.2968 165.115L4.43121 167.601L23.5352 143.505L20.4008 141.019ZM24.3188 135.955C23.6813 136.783 22.3716 138.476 20.3872 141.037L23.5488 143.487C25.5324 140.928 26.8467 139.229 27.4892 138.393L24.3188 135.955ZM25.8553 132.824C25.3138 134.268 24.7786 135.309 24.2765 136.012L27.5315 138.336C28.3094 137.247 28.9902 135.856 29.6007 134.228L25.8553 132.824ZM26.688 127.862C26.688 129.848 26.3953 131.473 25.871 132.783L29.585 134.269C30.3407 132.379 30.688 130.228 30.688 127.862H26.688ZM25.0326 123.864C26.1218 124.863 26.688 126.135 26.688 127.862H30.688C30.688 125.109 29.7182 122.733 27.7354 120.916L25.0326 123.864ZM20.624 122.278C22.5668 122.278 23.962 122.841 25.0016 123.835L27.7664 120.945C25.862 119.123 23.4172 118.278 20.624 118.278V122.278ZM15.9463 122.761C16.8699 122.469 18.3877 122.278 20.624 122.278V118.278C18.2523 118.278 16.2501 118.471 14.7417 118.947L15.9463 122.761ZM15.0209 123.092C14.9289 123.276 14.8481 123.278 15.0257 123.165C15.1929 123.059 15.492 122.913 15.9764 122.751L14.7116 118.957C14.044 119.179 13.4151 119.449 12.8783 119.791C12.3519 120.126 11.7911 120.608 11.4431 121.304L15.0209 123.092ZM14.944 124.406C14.944 123.951 14.9657 123.602 14.9992 123.345C15.0345 123.074 15.0739 122.977 15.0703 122.986L11.3937 121.41C11.0309 122.257 10.944 123.344 10.944 124.406H14.944ZM14.944 131.222V124.406H10.944V131.222H14.944ZM3.01507 132.545L12.8071 133.217L13.0809 129.227L3.28893 128.555L3.01507 132.545ZM1.152 115.19V130.55H5.152V115.19H1.152ZM21.68 108.678C15.0145 108.678 8.53375 110.263 2.25757 113.401L4.04643 116.979C9.80225 114.101 15.6735 112.678 21.68 112.678V108.678ZM37.3839 113.954C33.6786 110.322 28.3209 108.678 21.68 108.678V112.678C27.7111 112.678 31.8894 114.17 34.5841 116.81L37.3839 113.954ZM42.784 128.054C42.784 122.257 41.0432 117.466 37.3691 113.939L34.5989 116.825C37.3248 119.442 38.784 123.099 38.784 128.054H42.784ZM34.1666 147.279C39.7384 140.527 42.784 134.099 42.784 128.054H38.784C38.784 132.761 36.3896 138.301 31.0814 144.733L34.1666 147.279ZM18.6939 165.539L34.1499 147.299L31.0981 144.713L15.6421 162.953L18.6939 165.539ZM41.168 162.246H17.168V166.246H41.168V162.246ZM43.168 173.75V164.246H39.168V173.75H43.168ZM2.864 175.75H41.168V171.75H2.864V175.75ZM97.007 127.398H90.287V131.398H97.007V127.398ZM99.007 147.35V129.398H95.007V147.35H99.007ZM105.551 145.35H97.007V149.35H105.551V145.35ZM107.551 156.47V147.35H103.551V156.47H107.551ZM96.911 158.47H105.551V154.47H96.911V158.47ZM98.911 165.11V156.47H94.911V165.11H98.911ZM104.999 163.594L97.0313 163.114L96.7907 167.106L104.759 167.586L104.999 163.594ZM106.879 173.75V165.59H102.879V173.75H106.879ZM76.655 175.75H104.879V171.75H76.655V175.75ZM74.655 165.878V173.75H78.655V165.878H74.655ZM82.4462 163.404L76.4942 163.884L76.8158 167.872L82.7678 167.392L82.4462 163.404ZM83.391 162.71C83.391 162.943 83.3581 163.073 83.3367 163.132C83.3187 163.182 83.3064 163.191 83.3058 163.191C83.3028 163.194 83.131 163.357 82.4694 163.403L82.7446 167.393C83.939 167.311 85.1592 166.962 86.0842 166.069C87.0433 165.143 87.391 163.919 87.391 162.71H83.391ZM83.391 156.374V162.71H87.391V156.374H83.391ZM60.815 158.374H85.391V154.374H60.815V158.374ZM58.815 148.406V156.374H62.815V148.406H58.815ZM77.0571 109.626L59.0091 147.546L62.6209 149.266L80.6689 111.346L77.0571 109.626ZM88.8699 113.205L79.7499 108.693L77.9761 112.279L87.0961 116.791L88.8699 113.205ZM74.3316 148.212L89.7876 115.86L86.1784 114.136L70.7224 146.488L74.3316 148.212ZM86.255 145.35H72.527V149.35H86.255V145.35ZM84.255 142.166V147.35H88.255V142.166H84.255ZM88.3798 128.796L84.3478 141.564L88.1622 142.768L92.1942 130L88.3798 128.796ZM162.68 109.926H121.208V113.926H162.68V109.926ZM164.68 119.894V111.926H160.68V119.894H164.68ZM142.548 174.506L164.532 120.65L160.828 119.138L138.844 172.994L142.548 174.506ZM128.696 175.75H140.696V171.75H128.696V175.75ZM149.419 120.638L126.859 172.958L130.533 174.542L153.093 122.222L149.419 120.638ZM133.112 123.43H151.256V119.43H133.112V123.43ZM133 124.406C133 124.022 133.035 123.749 133.078 123.564C133.122 123.381 133.165 123.323 133.159 123.331C133.144 123.352 133.1 123.397 133.038 123.426C132.987 123.45 132.994 123.43 133.112 123.43V119.43C131.877 119.43 130.687 119.903 129.897 121.017C129.196 122.004 129 123.238 129 124.406H133ZM133 128.246V124.406H129V128.246H133ZM121.071 129.569L130.863 130.241L131.137 126.251L121.345 125.579L121.071 129.569ZM119.208 111.926V127.574H123.208V111.926H119.208ZM123.655 28.9318V12.75H119.655V28.9318H123.655ZM129.745 26.9318H121.655V30.9318H129.745V26.9318ZM127.745 12.75V28.9318H131.745V12.75H127.745ZM121.655 14.75H129.745V10.75H121.655V14.75ZM149.971 38.6426L144.409 33.0801L141.58 35.9085L147.143 41.471L149.971 38.6426ZM158.571 27.2142L147.143 38.6426L149.971 41.471L161.399 30.0426L158.571 27.2142ZM152.895 24.2653L158.559 30.0301L161.412 27.2268L155.748 21.462L152.895 24.2653ZM144.427 35.8897L155.754 24.259L152.889 21.4682L141.562 33.0989L144.427 35.8897ZM154.018 55.2045H170.2V51.2045H154.018V55.2045ZM156.018 61.2955V53.2045H152.018V61.2955H156.018ZM170.2 59.2955H154.018V63.2955H170.2V59.2955ZM168.2 53.2045V61.2955H172.2V53.2045H168.2ZM123.655 101.75V85.5682H119.655V101.75H123.655ZM129.745 99.75H121.655V103.75H129.745V99.75ZM127.745 85.5682V101.75H131.745V85.5682H127.745ZM121.655 87.5682H129.745V83.5682H121.655V87.5682ZM104.238 38.4216L92.7089 27.1955L89.9184 30.0614L101.448 41.2875L104.238 38.4216ZM107.119 32.9535L101.455 38.4149L104.231 41.2942L109.895 35.8329L107.119 32.9535ZM95.6642 24.379L107.093 35.8074L109.921 32.979L98.4926 21.5506L95.6642 24.379ZM92.7153 30.0551L98.4801 24.3914L95.6768 21.5381L89.912 27.2017L92.7153 30.0551ZM155.659 90.2474L144.433 78.6167L141.555 81.3947L152.781 93.0253L155.659 90.2474ZM158.547 84.2797L152.782 90.2467L155.659 93.026L161.424 87.0589L158.547 84.2797ZM147.067 75.9836L158.596 87.1086L161.374 84.2301L149.844 73.1051L147.067 75.9836ZM144.409 81.4199L149.87 75.9585L147.041 73.1301L141.58 78.5915L144.409 81.4199ZM83.2 61.2955V53.2045H79.2V61.2955H83.2ZM97.3818 59.2955H81.2V63.2955H97.3818V59.2955ZM95.3818 53.2045V61.2955H99.3818V53.2045H95.3818ZM81.2 55.2045H97.3818V51.2045H81.2V55.2045ZM98.5051 90.2347L92.8414 84.4699L89.9881 87.2732L95.6517 93.038L98.5051 90.2347ZM107.194 78.6926L95.6642 90.2221L98.4926 93.0506L110.022 81.521L107.194 78.6926ZM104.286 78.7138L107.219 81.5456L109.997 78.668L107.064 75.8362L104.286 78.7138ZM101.379 76.0081L104.312 78.7388L107.038 75.8112L104.105 73.0805L101.379 76.0081ZM92.829 87.2858L104.156 75.9585L101.328 73.1301L90.0006 84.4574L92.829 87.2858ZM125.7 79.5227C119.482 79.5227 114.261 77.3693 109.921 73.029L107.093 75.8574C112.192 80.9564 118.433 83.5227 125.7 83.5227V79.5227ZM141.479 73.029C137.139 77.3693 131.918 79.5227 125.7 79.5227V83.5227C132.967 83.5227 139.208 80.9564 144.307 75.8574L141.479 73.029ZM147.973 57.25C147.973 63.468 145.819 68.6886 141.479 73.029L144.307 75.8574C149.406 70.7584 151.973 64.5168 151.973 57.25H147.973ZM141.479 41.471C145.819 45.8114 147.973 51.032 147.973 57.25H151.973C151.973 49.9832 149.406 43.7416 144.307 38.6426L141.479 41.471ZM125.7 34.9773C131.918 34.9773 137.139 37.1307 141.479 41.471L144.307 38.6426C139.208 33.5436 132.967 30.9773 125.7 30.9773V34.9773ZM109.921 41.471C114.261 37.1307 119.482 34.9773 125.7 34.9773V30.9773C118.433 30.9773 112.192 33.5436 107.093 38.6426L109.921 41.471ZM103.427 57.25C103.427 51.032 105.581 45.8114 109.921 41.471L107.093 38.6426C101.994 43.7416 99.4273 49.9832 99.4273 57.25H103.427ZM109.921 73.029C105.581 68.6886 103.427 63.468 103.427 57.25H99.4273C99.4273 64.5168 101.994 70.7584 107.093 75.8574L109.921 73.029Z" fill="white" mask="url(#path-1-inside-1_5_18)"/>
</svg>
